# xmcd
#
# Track frame offsets:
#	150
#	13724
#	25715
#	38599
#	49285
#	60045
#	73057
#	85978
#	96979
#	109009
#
# Disc length: 1593 seconds
#
# Revision: 1
# Processed by: cddbd v1.5.2PL0 Copyright (c) Steve Scherf et al.
# Submitted via: audiograbber 1.83.01
#
DISCID=7606370a
DTITLE=George Jones and Tammy Wynette - Encore
DYEAR=1981
DGENRE=Country
TTITLE0=Golden Ring
TTITLE1=Two Story House
TTITLE2=Southern California
TTITLE3=Near You
TTITLE4=A Pair Of Old Sneakers
TTITLE5=We're Gonna Hold On
TTITLE6=Let's Build A World Together
TTITLE7=We Go Together
TTITLE8=Love In The Meantime
TTITLE9=(We're Not) The Jet Set
EXTD=
EXTT0=
EXTT1=
EXTT2=
EXTT3=
EXTT4=
EXTT5=
EXTT6=
EXTT7=
EXTT8=
EXTT9=
PLAYORDER=
